<svg enable-background="new 0 0 1280 1024" height="1024" viewBox="0 0 1280 1024" width="1280" xmlns="http://www.w3.org/2000/svg"><g stroke="#231f20"><path d="m1.9 771.4h1276.5v141.7h-1276.5z" fill="#f6921e" stroke-miterlimit="10" stroke-width="2"/><path d="m2.3 62.3h1276.5v708h-1276.5z" fill="#25a9e0" stroke-miterlimit="10" stroke-width="2"/><path d="m757.8 807.9-28.3-83.7c29-.9 47.6-12 58.6-30.5 30.1-.8 49.1-13.4 57.5-37.4 56.2-25.6 93.8-60.1 95.2-112.3-.6-24.9-14.1-44.9-37.7-61.1-5.8-41.2-29.1-66.9-70.1-76.8-18.5-38.8-51.8-52.7-98.4-44.3-49.6-24.9-98.2-29.3-145.4-9.9-54.9-14.9-100.6-5.4-133.9 37.4-26.7-2.9-47.3 5.1-59.6 27.6-35.3 10.1-50.4 33.8-47.1 69.9-15.8 24.2-13 47.9 10.5 70.9 6 33.9 28.7 52.2 64.9 58.1.6 49.9 27.6 74.8 81.6 73.9 31.1 28.9 61.5 34.4 95.2 11.8 14.4 24.1 39.1 37.1 68 50.2 14.9 11.8 24.5 31.2 30.3 56.2z" fill="#f9bfc0" stroke-miterlimit="10" stroke-width="10"/><path d="m454.4 449.9c-8.4-20.2-23.7-34-57.7-32.8" fill="none" stroke-linecap="round" stroke-miterlimit="10" stroke-width="10"/><path d="m570.5 388.4c-10.5-14.8 6.2-26.6 24.2-38.2" fill="none" stroke-linecap="round" stroke-miterlimit="10" stroke-width="10"/><path d="m466.5 497.4c-27-9-45.8 1.8-55.7 33.8" fill="none" stroke-linecap="round" stroke-miterlimit="10" stroke-width="10"/><path d="m361.8 565.2c7.7-32.3 22.9-41.9 49-34" fill="none" stroke-linecap="round" stroke-miterlimit="10" stroke-width="10"/><path d="m498.1 513.1c-23-40.2-6.9-57.2 28.5-63" fill="none" stroke-linecap="round" stroke-miterlimit="10" stroke-width="10"/><path d="m606.4 424.5c-43.4-14.4-71.8-8.2-79.9 25.7" fill="none" stroke-linecap="round" stroke-miterlimit="10" stroke-width="10"/><path d="m680.8 400c-20.4-22.2-72.4-8.7-74.3 24.5" fill="none" stroke-linecap="round" stroke-miterlimit="10" stroke-width="10"/><path d="m755.7 451.3c39.6-37.9-36.5-86.9-74.9-51.3" fill="none" stroke-linecap="round" stroke-miterlimit="10" stroke-width="10"/><path d="m421.3 616.3c29-46.7 69.2-61.4 120.7-43.7" fill="none" stroke-linecap="round" stroke-miterlimit="10" stroke-width="10"/><path d="m560 595.9c-13.6-.2-19.1-8.5-18-23.3" fill="none" stroke-linecap="round" stroke-miterlimit="10" stroke-width="10"/><path d="m621.9 568.5c-13.7-14.8-40.7-12.9-79.9 4.1" fill="none" stroke-linecap="round" stroke-miterlimit="10" stroke-width="10"/><path d="m595.3 533c6.6 6.9 6.3 15.2 1.2 24.5" fill="none" stroke-linecap="round" stroke-miterlimit="10" stroke-width="10"/><path d="m689.4 547.5c-28.1-7-50.3.6-67.5 21" fill="none" stroke-linecap="round" stroke-miterlimit="10" stroke-width="10"/><path d="m738.3 512c-17.4 5.5-33.9 16.3-48.9 35.6" fill="none" stroke-linecap="round" stroke-miterlimit="10" stroke-width="10"/><path d="m754.4 497.4c19.1-10.2 18.5-25.8 1.2-46.1" fill="none" stroke-linecap="round" stroke-miterlimit="10" stroke-width="10"/><path d="m681.4 464.2c2.5-32.3 27.2-36.5 74.3-12.8" fill="none" stroke-linecap="round" stroke-miterlimit="10" stroke-width="10"/><path d="m629.4 485.7c35 4.2 55-1.2 52-21.6" fill="none" stroke-linecap="round" stroke-miterlimit="10" stroke-width="10"/><path d="m551.3 493.9c31.5 11.9 57.7 9.7 78-8.2" fill="none" stroke-linecap="round" stroke-miterlimit="10" stroke-width="10"/><path d="m807.7 474.1c41.5 2.3 63.2 37.3 43.3 69.4" fill="none" stroke-linecap="round" stroke-miterlimit="10" stroke-width="10"/><path d="m929.6 587c-17.4 21.5-36 20.9-55.6 6" fill="none" stroke-linecap="round" stroke-miterlimit="10" stroke-width="10"/><path d="m808.9 605.2c44.6 37.9 96.6-38.5 42.1-61.8" fill="none" stroke-linecap="round" stroke-miterlimit="10" stroke-width="10"/><path d="m731.5 564.4c34.8-16.2 62.2-12.8 81.7 11.7" fill="none" stroke-linecap="round" stroke-miterlimit="10" stroke-width="10"/><path d="m767.4 609.9c34.3 5.5 60.1-15.2 45.8-33.8" fill="none" stroke-linecap="round" stroke-miterlimit="10" stroke-width="10"/><path d="m695.6 612.8c18 18.1 60.7 15.7 71.8-2.9" fill="none" stroke-linecap="round" stroke-miterlimit="10" stroke-width="10"/><path d="m589.7 632.6c32.2 18.1 86.1 7.6 105.9-19.8" fill="none" stroke-linecap="round" stroke-miterlimit="10" stroke-width="10"/><path d="m511.1 636.1c29.1 14.2 55.4 13.5 78.6-3.5" fill="none" stroke-linecap="round" stroke-miterlimit="10" stroke-width="10"/><path d="m607.1 695c26 12.2 60.5 3.6 71.2-16.9" fill="none" stroke-linecap="round" stroke-miterlimit="10" stroke-width="10"/><path d="m647.9 639.8c25 4.6 36.5 16.5 30.3 38.3" fill="none" stroke-linecap="round" stroke-miterlimit="10" stroke-width="10"/><path d="m680 666.3c34.2 12.7 76.1 8.3 98.9-14.1" fill="none" stroke-linecap="round" stroke-miterlimit="10" stroke-width="10"/><path d="m675.7 704.9c15.3 14 33.7 20.3 55.8 17.8" fill="none" stroke-linecap="round" stroke-miterlimit="10" stroke-width="10"/><path d="m651.6 698.2 24.8 7" fill="none" stroke-linecap="round" stroke-miterlimit="10" stroke-width="10"/></g><ellipse cx="626" cy="562.3" fill="none" rx="503.7" ry="260.6"/><text transform="matrix(.9914 -.1308 .1308 .9914 460.854 315.1265)"><tspan fill="#f6921e" font-family="'ArialNarrow-Bold'" font-size="178.0855" x="0" y="0">2</tspan><tspan fill="#f6921e" font-family="'ArialNarrow-Bold'" font-size="178.0855" rotate="4.8" x="78.7" y="-.1">0</tspan><tspan fill="#f6921e" font-family="'ArialNarrow-Bold'" font-size="178.0855" rotate="9.4" x="157.2" y="6.4">2</tspan><tspan fill="#f6921e" font-family="'ArialNarrow-Bold'" font-size="178.0855" rotate="14.1" x="235" y="19.1">0</tspan></text><path d="m419.3 203.8-87.9-39.8" fill="#231f20" stroke="#f6921e" stroke-linecap="round" stroke-miterlimit="10" stroke-width="2"/><path d="m331.4 342.7 87.9-39.8" fill="#231f20" stroke="#f6921e" stroke-linecap="round" stroke-miterlimit="10" stroke-width="2"/><path d="m400.5 250.3h-100.8" fill="#231f20" stroke="#f6921e" stroke-linecap="round" stroke-miterlimit="10" stroke-width="2"/><path d="m810.2 203.8 88-39.8" fill="#231f20" stroke="#f6921e" stroke-linecap="round" stroke-miterlimit="10" stroke-width="2"/><path d="m898.2 342.7-88-39.8" fill="#231f20" stroke="#f6921e" stroke-linecap="round" stroke-miterlimit="10" stroke-width="2"/><path d="m829 250.3h100.8" fill="#231f20" stroke="#f6921e" stroke-linecap="round" stroke-miterlimit="10" stroke-width="2"/></svg>